<svg width="200" height="200" viewBox="0 0 200 200" fill="none" xmlns="http://www.w3.org/2000/svg">
<path d="M121.68 75.876L78.1358 75.884C78.1094 75.884 78.0836 75.8763 78.0615 75.8618C78.0395 75.8474 78.0221 75.8268 78.0115 75.8026C78.0008 75.7785 77.9975 75.7517 78.0018 75.7257C78.0062 75.6996 78.018 75.6754 78.0358 75.656L85.1878 68.044C85.2006 68.0302 85.216 68.0191 85.2332 68.0115C85.2504 68.0039 85.269 68 85.2878 68L138.38 68.004C138.406 68.0039 138.431 68.0113 138.453 68.0253C138.475 68.0392 138.493 68.0592 138.503 68.0827C138.514 68.1063 138.518 68.1325 138.515 68.1582C138.511 68.184 138.501 68.2082 138.484 68.228L115.42 94.672C115.402 94.6933 115.378 94.7086 115.351 94.7158C115.324 94.723 115.295 94.7217 115.269 94.7121C115.243 94.7024 115.22 94.685 115.204 94.6621C115.188 94.6392 115.18 94.6119 115.18 94.584L115.228 84.484C115.228 84.4537 115.237 84.4241 115.256 84.4L121.788 76.096C121.804 76.0759 121.813 76.0517 121.816 76.0262C121.819 76.0008 121.814 75.975 121.803 75.9521C121.792 75.9291 121.774 75.9098 121.752 75.8963C121.731 75.8828 121.705 75.8758 121.68 75.876Z" fill="#FEFDFD"/>
<path d="M105.152 78.7563C105.203 78.7003 105.228 78.7097 105.228 78.7843L105.232 121.672C105.232 121.811 105.187 121.934 105.096 122.04L96.5558 131.936C96.2332 132.31 96.0718 132.25 96.0718 131.756L96.0838 89.2403C96.0838 89.0963 96.1318 88.9697 96.2278 88.8603L105.152 78.7563Z" fill="#FEFDFD"/>
</svg>
