<svg xmlns="http://www.w3.org/2000/svg" xmlns:xlink="http://www.w3.org/1999/xlink" width="500" zoomAndPan="magnify" viewBox="0 0 375 374.999991" height="500" preserveAspectRatio="xMidYMid meet" version="1.0"><path fill="#303030" d="M 229.859375 150.496094 L 145.109375 150.511719 C 145.058594 150.511719 145.007812 150.5 144.964844 150.46875 C 144.921875 150.441406 144.890625 150.402344 144.867188 150.355469 C 144.847656 150.308594 144.839844 150.253906 144.851562 150.203125 C 144.859375 150.15625 144.882812 150.109375 144.914062 150.070312 L 158.835938 135.253906 C 158.859375 135.226562 158.890625 135.207031 158.921875 135.191406 C 158.957031 135.175781 158.992188 135.167969 159.03125 135.167969 L 262.359375 135.175781 C 262.410156 135.175781 262.460938 135.191406 262.503906 135.21875 C 262.546875 135.246094 262.578125 135.285156 262.601562 135.332031 C 262.621094 135.375 262.628906 135.425781 262.625 135.476562 C 262.617188 135.527344 262.59375 135.574219 262.5625 135.613281 L 217.675781 187.078125 C 217.640625 187.121094 217.59375 187.152344 217.539062 187.164062 C 217.488281 187.179688 217.429688 187.175781 217.382812 187.15625 C 217.328125 187.136719 217.285156 187.105469 217.253906 187.058594 C 217.222656 187.015625 217.207031 186.960938 217.207031 186.90625 L 217.300781 167.25 C 217.300781 167.191406 217.320312 167.132812 217.355469 167.085938 L 230.066406 150.925781 C 230.097656 150.886719 230.117188 150.839844 230.125 150.789062 C 230.128906 150.742188 230.121094 150.691406 230.097656 150.644531 C 230.074219 150.601562 230.042969 150.5625 230 150.539062 C 229.957031 150.511719 229.90625 150.496094 229.859375 150.496094 Z M 229.859375 150.496094 " fill-opacity="1" fill-rule="nonzero"/><path fill="#303030" d="M 197.691406 156.148438 C 197.789062 156.039062 197.839844 156.058594 197.839844 156.203125 L 197.847656 239.675781 C 197.847656 239.945312 197.757812 240.183594 197.582031 240.390625 L 180.960938 259.652344 C 180.332031 260.378906 180.019531 260.261719 180.019531 259.300781 L 180.042969 176.554688 C 180.042969 176.273438 180.136719 176.027344 180.320312 175.816406 Z M 197.691406 156.148438 " fill-opacity="1" fill-rule="nonzero"/></svg>